<svg width="24" height="24" viewBox="0 0 24 24" fill="none" xmlns="http://www.w3.org/2000/svg">
  <defs>
    <linearGradient id="configGradient" x1="0%" y1="0%" x2="100%" y2="100%">
      <stop offset="0%" style="stop-color:#3b82f6;stop-opacity:1" />
      <stop offset="100%" style="stop-color:#1e40af;stop-opacity:1" />
    </linearGradient>
  </defs>
  
  <!-- Gear/Settings icon -->
  <circle cx="12" cy="12" r="3" fill="none" stroke="url(#configGradient)" stroke-width="2"/>
  <path d="M12 1L15.09 8.26L22 9L17 14L18.18 21L12 17.77L5.82 21L7 14L2 9L8.91 8.26L12 1Z" 
        fill="none" stroke="url(#configGradient)" stroke-width="1.5" opacity="0.6"/>
  
  <!-- Center dot -->
  <circle cx="12" cy="12" r="1.5" fill="url(#configGradient)"/>
  
  <!-- Outer spokes -->
  <g stroke="url(#configGradient)" stroke-width="2" opacity="0.8">
    <line x1="12" y1="2" x2="12" y2="6"/>
    <line x1="12" y1="18" x2="12" y2="22"/>
    <line x1="22" y1="12" x2="18" y2="12"/>
    <line x1="6" y1="12" x2="2" y2="12"/>
    <line x1="19.07" y1="4.93" x2="16.24" y2="7.76"/>
    <line x1="7.76" y1="16.24" x2="4.93" y2="19.07"/>
    <line x1="19.07" y1="19.07" x2="16.24" y2="16.24"/>
    <line x1="7.76" y1="7.76" x2="4.93" y2="4.93"/>
  </g>
</svg>
