<svg width="24" height="24" viewBox="0 0 24 24" fill="none" xmlns="http://www.w3.org/2000/svg">
  <defs>
    <linearGradient id="envGradient" x1="0%" y1="0%" x2="100%" y2="100%">
      <stop offset="0%" style="stop-color:#3b82f6;stop-opacity:1" />
      <stop offset="100%" style="stop-color:#1e40af;stop-opacity:1" />
    </linearGradient>
  </defs>
  
  <!-- Cloud shape -->
  <path d="M18.5 12C20.43 12 22 13.57 22 15.5S20.43 19 18.5 19H6.5C4.57 19 3 17.43 3 15.5S4.57 12 6.5 12C6.5 9.24 8.74 7 11.5 7C13.64 7 15.44 8.36 16.19 10.22C17.12 10.08 18 10.5 18.5 12Z" 
        fill="url(#envGradient)" opacity="0.8"/>
  
  <!-- Server/Environment indicators -->
  <rect x="7" y="13" width="10" height="1.5" rx="0.75" fill="white" opacity="0.9"/>
  <rect x="7" y="15" width="8" height="1.5" rx="0.75" fill="white" opacity="0.7"/>
  <rect x="7" y="17" width="6" height="1.5" rx="0.75" fill="white" opacity="0.5"/>
  
  <!-- Connection dots -->
  <circle cx="5" cy="9" r="1" fill="url(#envGradient)" opacity="0.6"/>
  <circle cx="19" cy="8" r="1" fill="url(#envGradient)" opacity="0.6"/>
  <circle cx="8" cy="5" r="1" fill="url(#envGradient)" opacity="0.6"/>
  <circle cx="16" cy="4" r="1" fill="url(#envGradient)" opacity="0.6"/>
  
  <!-- Connection lines -->
  <path d="M5 9 Q8 7 11.5 7" stroke="url(#envGradient)" stroke-width="1" fill="none" opacity="0.4"/>
  <path d="M19 8 Q16 6 11.5 7" stroke="url(#envGradient)" stroke-width="1" fill="none" opacity="0.4"/>
</svg>
